# xmcd
#
# Track frame offsets: 
#        150
#        11998
#        27508
#        49108
#        68015
#        89608
#        108733
#        124783
#        159133
#        184633
#        203083
#        223783
#        245008
#        268183
#        287608
#        309508
#
# Disc length: 4394 seconds
#
# Revision: 3
# Processed by: cddbd v1.5.2PL0 Copyright (c) Steve Scherf et al.
# Submitted via: ExactAudioCopy v0.99pb3
#
DISCID=ec112810
DTITLE=Various Artist - Platinum Jazz
DYEAR=1996
DGENRE=Jazz
TTITLE0=Kalapana - Nightbird
TTITLE1=Rupert Holmes - Let's get crazy tonight
TTITLE2=Bobby Caldwell - What you won't do for love
TTITLE3=Kevyn Lettau - Bridges
TTITLE4=New York Voices - Baby come back
TTITLE5=Pauline Wilson - Stay
TTITLE6=Workshy - Strangle hold
TTITLE7=Earth, Wind and Fire - Reasons (Live)
TTITLE8=Sonya - Never knew love like this before
TTITLE9=Blue People - Mercy mercy me
TTITLE10=Gino Vanello - Living inside myself (Live)
TTITLE11=Brand New Heavies - Never stop
TTITLE12=The Jazzmasters - Really miss your love
TTITLE13=Patti Austin - Got to give it up
TTITLE14=Black Box - Native New Yorker
TTITLE15=Matt Bianco - No other woman
EXTD=
EXTT0=
EXTT1=
EXTT2=
EXTT3=
EXTT4=
EXTT5=
EXTT6=
EXTT7=
EXTT8=
EXTT9=
EXTT10=
EXTT11=
EXTT12=
EXTT13=
EXTT14=
EXTT15=
PLAYORDER=
